<!DOCTYPE svg PUBLIC "-//W3C//DTD SVG 1.1//EN" "http://www.w3.org/Graphics/SVG/1.1/DTD/svg11.dtd">

<!-- Uploaded to: SVG Repo, www.svgrepo.com, Transformed by: SVG Repo Mixer Tools -->
<svg fill="rgb(62, 84, 163)" version="1.1" id="Layer_1" xmlns="http://www.w3.org/2000/svg" xmlns:xlink="http://www.w3.org/1999/xlink" viewBox="0 0 511.998 511.998" xml:space="preserve" width="60px" height="60px" transform="matrix(-1, 0, 0, 1, 0, 0)">

<g id="SVGRepo_bgCarrier" stroke-width="0"/>

<g id="SVGRepo_tracerCarrier" stroke-linecap="round" stroke-linejoin="round"/>

<g id="SVGRepo_iconCarrier"> <g> <g> <rect x="186.853" y="106.165" transform="matrix(0.7071 -0.7071 0.7071 0.7071 -72.8134 198.5436)" width="32.807" height="162.001"/> </g> </g> <g> <g> <rect x="98.626" y="91.74" transform="matrix(0.7071 -0.7071 0.7071 0.7071 -118.523 144.3872)" width="32.807" height="247.048"/> </g> </g> <g> <g> <rect x="214.945" y="-24.58" transform="matrix(0.7071 -0.7071 0.7071 0.7071 -2.2033 192.568)" width="32.807" height="247.048"/> </g> </g> <g> <g> <path d="M452.436,365.884l18.551-83.6l-83.6,18.551l-73.776-43.476l-8.191,85.24l-64.147,56.729l78.537,34.132l34.132,78.537 l56.729-64.147l85.24-8.191L452.436,365.884z M394.663,416.432l-31.167,35.241l-18.75-43.146l-43.146-18.75l35.241-31.167 l4.5-46.828l40.531,23.886l45.927-10.191l-10.191,45.927l23.886,40.531L394.663,416.432z"/> </g> </g> </g>

</svg>